<svg width="512" height="512" viewBox="0 0 512 512" fill="none" xmlns="http://www.w3.org/2000/svg">
<g>
<path d="M409 282V220.394C409 211.244 399.171 205.461 391.172 209.904L355.172 229.904C351.363 232.021 349 236.036 349 240.394V267C349 271.844 351.913 276.214 356.385 278.077L392.385 293.077C400.289 296.37 409 290.563 409 282Z" fill="#8EC5FF"/>
<path d="M219 200V303.784H325.796C328.518 303.784 331.158 302.859 333.285 301.16L333.61 300.9C336.461 298.623 338.121 295.173 338.121 291.524V213.084C338.121 209.898 336.854 206.843 334.6 204.592L333.514 203.508C331.264 201.262 328.214 200 325.035 200H219Z" fill="#51A2FF"/>
<path d="M177.871 216.216H157V320H177.871C181.051 320 184.1 318.738 186.35 316.492L195.565 307.292C197.815 305.045 200.864 303.784 204.044 303.784H214V200H204.044C200.864 200 197.815 201.262 195.565 203.508L186.35 212.708C184.1 214.955 181.051 216.216 177.871 216.216Z" fill="#FF6467"/>
<path d="M101.603 205.441C100.554 207.186 100 209.184 100 211.22V291.524C100 295.173 101.66 298.623 104.511 300.9L104.836 301.16C106.963 302.859 109.604 303.784 112.325 303.784H125.522C128.921 303.784 132.16 305.225 134.435 307.749L141.904 316.035C144.18 318.559 147.419 320 150.817 320H152V216.216H150.113C147.131 216.216 144.256 215.106 142.048 213.102L131.043 203.114C128.835 201.11 125.96 200 122.978 200H111.22C107.282 200 103.632 202.065 101.603 205.441Z" fill="#FDC700"/>
<g filter="url(#filter0_d_2_33)">
<path d="M259.121 145.121C257.231 143.231 258.57 140 261.243 140H295.757C298.43 140 299.769 143.231 297.879 145.121L286.343 156.657C284.843 158.157 284 160.192 284 162.314V343.5C284 346.538 281.538 349 278.5 349C275.462 349 273 346.538 273 343.5V162.314C273 160.192 272.157 158.157 270.657 156.657L259.121 145.121Z" fill="#ffffff"/>
</g>
</g>
<defs>
<filter id="filter0_d_2_33" x="248.237" y="140" width="60.5269" height="229" filterUnits="userSpaceOnUse" color-interpolation-filters="sRGB">
<feFlood flood-opacity="0" result="BackgroundImageFix"/>
<feColorMatrix in="SourceAlpha" type="matrix" values="0 0 0 0 0 0 0 0 0 0 0 0 0 0 0 0 0 0 127 0" result="hardAlpha"/>
<feOffset dy="10"/>
<feGaussianBlur stdDeviation="5"/>
<feComposite in2="hardAlpha" operator="out"/>
<feColorMatrix type="matrix" values="0 0 0 0 1 0 0 0 0 1 0 0 0 0 1 0 0 0 0.25 0"/>
<feBlend mode="normal" in2="BackgroundImageFix" result="effect1_dropShadow_2_33"/>
<feBlend mode="normal" in="SourceGraphic" in2="effect1_dropShadow_2_33" result="shape"/>
</filter>
</defs>
</svg>